<svg width="85" height="85" viewBox="0 0 85 85" fill="none" xmlns="http://www.w3.org/2000/svg">
<path d="M74.375 14.1666H7.08331V21.2499H15.2291L26.8458 53.1249C27.5765 55.1917 28.9286 56.9818 30.7166 58.25C32.5047 59.5181 34.6412 60.2021 36.8333 60.2083H67.2916V53.1249H36.8333C36.1054 53.1246 35.3954 52.9001 34.7997 52.4818C34.204 52.0636 33.7516 51.4719 33.5041 50.7874L31.875 46.0416H64.7416C66.2788 46.0394 67.7736 45.5372 69.0002 44.6108C70.2269 43.6844 71.1189 42.3841 71.5416 40.9062L77.9166 18.6645C78.0606 18.1994 78.1071 17.7097 78.0533 17.2258C77.9995 16.7419 77.8465 16.2744 77.6039 15.8523C77.3613 15.4302 77.0343 15.0626 76.6432 14.7726C76.2522 14.4826 75.8056 14.2763 75.3312 14.1666C75.0146 14.115 74.6916 14.115 74.375 14.1666ZM64.6354 38.9583H29.2187L22.7729 21.2499H69.6646L64.6354 38.9583Z" fill="black"/>
<path d="M37.1875 74.375C40.1215 74.375 42.5 71.9965 42.5 69.0625C42.5 66.1285 40.1215 63.75 37.1875 63.75C34.2535 63.75 31.875 66.1285 31.875 69.0625C31.875 71.9965 34.2535 74.375 37.1875 74.375Z" fill="black"/>
<path d="M58.4375 74.375C61.3715 74.375 63.75 71.9965 63.75 69.0625C63.75 66.1285 61.3715 63.75 58.4375 63.75C55.5035 63.75 53.125 66.1285 53.125 69.0625C53.125 71.9965 55.5035 74.375 58.4375 74.375Z" fill="black"/>
</svg>
