<svg width="85" height="85" viewBox="0 0 85 85" fill="none" xmlns="http://www.w3.org/2000/svg">
<path d="M39.0433 40.8566L35.4166 35.4166L28.3333 46.0416H60.2083L47.8125 28.3333L39.0433 40.8566Z" fill="black"/>
<path d="M33.6564 31.8748C36.5963 31.8748 38.9796 29.4915 38.9796 26.5516C38.9796 23.6118 36.5963 21.2285 33.6564 21.2285C30.7166 21.2285 28.3333 23.6118 28.3333 26.5516C28.3333 29.4915 30.7166 31.8748 33.6564 31.8748Z" fill="black"/>
<path d="M67.2917 7.08325H21.25C16.9788 7.08325 10.625 9.91304 10.625 17.7083V67.2916C10.625 75.0868 16.9788 77.9166 21.25 77.9166H74.375V70.8332H21.2925C19.6562 70.7907 17.7083 70.1462 17.7083 67.2916C17.7083 64.437 19.6562 63.7924 21.2925 63.7499H74.375V14.1666C74.375 10.2601 71.1981 7.08325 67.2917 7.08325ZM67.2917 56.6666H17.7083V17.7083C17.7083 14.8537 19.6562 14.2091 21.25 14.1666H67.2917V56.6666Z" fill="black"/>
</svg>
