<svg width="85" height="85" viewBox="0 0 85 85" fill="none" xmlns="http://www.w3.org/2000/svg">
<path d="M67.2917 7.08325H31.875C27.9685 7.08325 24.7917 10.2601 24.7917 14.1666V35.4166H17.7083C13.8019 35.4166 10.625 38.5935 10.625 42.4999V74.3749C10.625 75.3142 10.9981 76.2151 11.6623 76.8793C12.3265 77.5435 13.2274 77.9166 14.1667 77.9166H70.8333C71.7726 77.9166 72.6735 77.5435 73.3377 76.8793C74.0019 76.2151 74.375 75.3142 74.375 74.3749V14.1666C74.375 10.2601 71.1981 7.08325 67.2917 7.08325ZM17.7083 42.4999H38.9583V70.8333H17.7083V42.4999ZM67.2917 70.8333H46.0417V42.4999C46.0417 38.5935 42.8648 35.4166 38.9583 35.4166H31.875V14.1666H67.2917V70.8333Z" fill="black"/>
<path d="M38.9583 21.25H46.0417V28.3333H38.9583V21.25ZM53.125 21.25H60.2083V28.3333H53.125V21.25ZM53.125 35.5265H60.2083V42.5H53.125V35.5265ZM53.125 49.5833H60.2083V56.6667H53.125V49.5833ZM24.7917 49.5869H31.875V56.6702H24.7917V49.5869Z" fill="black"/>
</svg>
