<svg width="85" height="85" viewBox="0 0 85 85" fill="none" xmlns="http://www.w3.org/2000/svg">
<path d="M58.8059 39.1283C60.9629 35.4524 61.8944 31.1854 61.4657 26.945C60.8317 20.6266 57.3042 15.0414 51.5384 11.22L47.6248 17.1204C51.5879 19.7483 53.9998 23.4918 54.4177 27.6533C54.6104 29.5874 54.3697 31.5401 53.7129 33.3695C53.0562 35.1988 51.9999 36.8588 50.6211 38.2287L46.3994 42.4504L52.1298 44.1327C67.1182 48.5243 67.2917 63.5977 67.2917 63.75H74.375C74.375 57.4139 70.9892 45.0323 58.8059 39.1283Z" fill="black"/>
<path d="M33.6458 42.5001C41.4588 42.5001 47.8125 36.1463 47.8125 28.3334C47.8125 20.5205 41.4588 14.1667 33.6458 14.1667C25.8329 14.1667 19.4792 20.5205 19.4792 28.3334C19.4792 36.1463 25.8329 42.5001 33.6458 42.5001ZM33.6458 21.2501C37.5523 21.2501 40.7292 24.427 40.7292 28.3334C40.7292 32.2399 37.5523 35.4167 33.6458 35.4167C29.7394 35.4167 26.5625 32.2399 26.5625 28.3334C26.5625 24.427 29.7394 21.2501 33.6458 21.2501ZM38.9583 46.0417H28.3333C16.614 46.0417 7.08334 55.5724 7.08334 67.2917V70.8334H14.1667V67.2917C14.1667 59.4788 20.5204 53.1251 28.3333 53.1251H38.9583C46.7713 53.1251 53.125 59.4788 53.125 67.2917V70.8334H60.2083V67.2917C60.2083 55.5724 50.6777 46.0417 38.9583 46.0417Z" fill="black"/>
</svg>
